<svg width="48" height="48" viewBox="0 0 48 48" fill="none" xmlns="http://www.w3.org/2000/svg">
<path d="M38.5 40.5C38.5 41.6457 37.4516 43.1445 34.6771 44.4451C32.0221 45.6896 28.2488 46.5 24 46.5C19.7512 46.5 15.9779 45.6896 13.3229 44.4451C10.5484 43.1445 9.5 41.6457 9.5 40.5C9.5 39.3543 10.5484 37.8555 13.3229 36.5549C15.9779 35.3104 19.7512 34.5 24 34.5C28.2488 34.5 32.0221 35.3104 34.6771 36.5549C37.4516 37.8555 38.5 39.3543 38.5 40.5Z" stroke="#152C5B" stroke-width="3"/>
<path d="M36.5 13.3953C36.5 16.8294 35.0031 23.6526 32.5142 29.6467C31.2754 32.6301 29.833 35.3025 28.2863 37.2018C26.7014 39.1481 25.2445 40 24 40C22.7555 40 21.2986 39.1481 19.7137 37.2018C18.167 35.3025 16.7246 32.6301 15.4858 29.6467C12.9969 23.6526 11.5 16.8294 11.5 13.3953C11.5 6.88745 17.0333 1.5 24 1.5C30.9667 1.5 36.5 6.88745 36.5 13.3953Z" stroke="#152C5B" stroke-width="3"/>
<circle cx="24" cy="14" r="4.5" stroke="#FF498B" stroke-width="3"/>
</svg>
